<?xml version="1.0" encoding="UTF-8" standalone="no"?>
<!-- Created with Inkscape (http://www.inkscape.org/) -->
<svg
   xmlns:dc="http://purl.org/dc/elements/1.1/"
   xmlns:cc="http://creativecommons.org/ns#"
   xmlns:rdf="http://www.w3.org/1999/02/22-rdf-syntax-ns#"
   xmlns:svg="http://www.w3.org/2000/svg"
   xmlns="http://www.w3.org/2000/svg"
   xmlns:sodipodi="http://sodipodi.sourceforge.net/DTD/sodipodi-0.dtd"
   xmlns:inkscape="http://www.inkscape.org/namespaces/inkscape"
   width="1185.9363"
   height="900.08112"
   id="svg2"
   sodipodi:version="0.32"
   inkscape:version="0.46"
   version="1.0"
   style="display:inline"
   sodipodi:docname="tractor icon.svg"
   inkscape:output_extension="org.inkscape.output.svg.inkscape">
  <defs
     id="defs4" />
  <sodipodi:namedview
     id="base"
     pagecolor="#ffffff"
     bordercolor="#666666"
     borderopacity="1.0"
     inkscape:pageopacity="0.0"
     inkscape:pageshadow="2"
     inkscape:zoom="0.24748737"
     inkscape:cx="275.92833"
     inkscape:cy="574.67409"
     inkscape:document-units="px"
     inkscape:current-layer="layer2"
     showgrid="false"
     inkscape:window-width="1152"
     inkscape:window-height="814"
     inkscape:window-x="-8"
     inkscape:window-y="-8" />
  <metadata
     id="metadata7">
    <rdf:RDF>
      <cc:Work
         rdf:about="">
        <dc:format>image/svg+xml</dc:format>
        <dc:type
           rdf:resource="http://purl.org/dc/dcmitype/StillImage" />
      </cc:Work>
    </rdf:RDF>
  </metadata>
  <g
     inkscape:groupmode="layer"
     id="layer2"
     transform="translate(386.65568,304.9245)"
     sodipodi:insensitive="true">
    <path
       id="path2473"
       style="fill:#000000;fill-opacity:1;fill-rule:evenodd;stroke:#000000;stroke-width:3.92856383px;stroke-linecap:butt;stroke-linejoin:miter;stroke-opacity:1"
       d="M 282.08589,2.8735312 C 332.57755,-71.177889 421.39955,-99.749073 503.19225,-131.01208 C 514.46135,-133.63345 593.11415,-137.95416 593.11415,-137.95416 C 601.29615,-55.495885 593.11035,18.27402 572.36145,100.25698 C 504.97285,109.56048 440.91085,122.30164 380.87977,139.20845 C 325.89715,200.88491 346.47168,310.34075 239.9874,344.57436 C 223.17463,272.57585 290.87055,92.090598 302.96448,98.637388 C 347.78857,62.081428 451.14745,50.345472 467.77165,-24.947178 C 405.81785,-12.108401 343.059,49.724562 282.08589,2.8735312 z M 173.39965,-59.832903 L 150.04187,-35.659817 C 166.55791,-9.2763678 185.81887,14.179779 207.44459,35.270243 L 150.48808,34.334493 L 147.08185,17.457065 L -355.09271,9.2065312 L -302.34518,266.32378 C -277.68579,253.76297 -249.7183,246.92901 -220.13747,247.415 C -143.5975,248.67261 -79.308737,298.88552 -56.601097,367.72912 L 219.83427,372.27086 L 171.82159,118.4238 L 233.21541,58.531498 C 250.12573,72.476528 268.26262,85.177458 287.3473,96.870078 L 310.70508,72.697008 C 277.18163,15.843768 232.89128,-29.87961 173.39965,-59.832903 z M -78.642387,441.77654 C -80.030107,526.24028 -149.70661,593.66429 -234.1703,592.2766 C -318.63404,590.88888 -386.05805,521.21233 -384.67036,436.74861 C -383.28264,352.28492 -313.60609,284.86091 -229.14237,286.24858 C -144.67871,287.63632 -77.254667,357.31285 -78.642387,441.77654 z M 797.28445,364.95658 C 795.18025,493.02929 689.52935,595.26463 561.45665,593.16046 C 433.38395,591.05627 331.14867,485.40545 333.25284,357.33273 C 335.35706,229.26005 441.00785,127.02472 569.08055,129.1289 C 697.15325,131.23307 799.38855,236.88391 797.28445,364.95658 z M 593.12585,-237.58455 C 592.54265,-202.08534 563.25825,-173.74771 527.75905,-174.33094 C 492.25985,-174.91418 463.92215,-204.19851 464.50545,-239.69772 C 465.08865,-275.19697 494.37305,-303.53461 529.87225,-302.95137 C 565.37145,-302.36814 593.70915,-273.0838 593.12585,-237.58455 z" />
  </g>
</svg>
